<mxfile host="app.diagrams.net" modified="2022-11-01T06:59:29.914Z" agent="5.0 (X11; Linux x86_64) AppleWebKit/537.36 (KHTML, like Gecko) Chrome/98.0.4758.80 Safari/537.36" etag="AlSMQLHfRh4Y_kU4AQ4m" version="20.3.2" type="github">
  <diagram id="XW8KIM-7wdCa0JijoHfH" name="Page-1">
    <mxGraphModel dx="1635" dy="841" grid="1" gridSize="10" guides="1" tooltips="1" connect="1" arrows="1" fold="1" page="1" pageScale="1" pageWidth="850" pageHeight="1100" math="0" shadow="0">
      <root>
        <mxCell id="0" />
        <mxCell id="1" parent="0" />
        <mxCell id="zNC3zreKvYr2TmgG_UFC-11" value="&amp;nbsp; &amp;nbsp; &amp;nbsp; worker-1" style="rounded=1;whiteSpace=wrap;html=1;verticalAlign=top;align=left;" vertex="1" parent="1">
          <mxGeometry x="750" y="90" width="460" height="290" as="geometry" />
        </mxCell>
        <mxCell id="zNC3zreKvYr2TmgG_UFC-10" value="&amp;nbsp; &amp;nbsp; &amp;nbsp; &amp;nbsp;worker-2" style="rounded=1;whiteSpace=wrap;html=1;align=left;verticalAlign=top;" vertex="1" parent="1">
          <mxGeometry x="10" y="90" width="700" height="290" as="geometry" />
        </mxCell>
        <mxCell id="zNC3zreKvYr2TmgG_UFC-1" value="client pod" style="rounded=0;whiteSpace=wrap;html=1;verticalAlign=top;align=left;" vertex="1" parent="1">
          <mxGeometry x="20" y="170" width="170" height="70" as="geometry" />
        </mxCell>
        <mxCell id="zNC3zreKvYr2TmgG_UFC-2" value="ztunnel-2" style="rounded=0;whiteSpace=wrap;html=1;verticalAlign=top;align=left;" vertex="1" parent="1">
          <mxGeometry x="230" y="160" width="250" height="80" as="geometry" />
        </mxCell>
        <mxCell id="zNC3zreKvYr2TmgG_UFC-3" value="ztunnel-1" style="rounded=0;whiteSpace=wrap;html=1;verticalAlign=top;align=left;" vertex="1" parent="1">
          <mxGeometry x="760" y="140" width="220" height="100" as="geometry" />
        </mxCell>
        <mxCell id="zNC3zreKvYr2TmgG_UFC-4" value="server pod" style="rounded=0;whiteSpace=wrap;html=1;align=left;verticalAlign=top;" vertex="1" parent="1">
          <mxGeometry x="1020" y="170" width="150" height="70" as="geometry" />
        </mxCell>
        <mxCell id="zNC3zreKvYr2TmgG_UFC-5" value="eth0&lt;br&gt;10.101.2.8" style="rounded=0;whiteSpace=wrap;html=1;" vertex="1" parent="1">
          <mxGeometry x="300" y="170" width="90" height="30" as="geometry" />
        </mxCell>
        <mxCell id="zNC3zreKvYr2TmgG_UFC-6" value="pistioout&lt;br&gt;192.168.127.2" style="rounded=0;whiteSpace=wrap;html=1;" vertex="1" parent="1">
          <mxGeometry x="300" y="210" width="90" height="30" as="geometry" />
        </mxCell>
        <mxCell id="zNC3zreKvYr2TmgG_UFC-7" value="eth0&lt;br&gt;10.101.3.8" style="rounded=0;whiteSpace=wrap;html=1;" vertex="1" parent="1">
          <mxGeometry x="880" y="210" width="90" height="30" as="geometry" />
        </mxCell>
        <mxCell id="zNC3zreKvYr2TmgG_UFC-25" style="edgeStyle=orthogonalEdgeStyle;rounded=0;orthogonalLoop=1;jettySize=auto;html=1;exitX=1;exitY=0.5;exitDx=0;exitDy=0;entryX=0.75;entryY=0;entryDx=0;entryDy=0;curved=1;" edge="1" parent="1" source="zNC3zreKvYr2TmgG_UFC-8" target="zNC3zreKvYr2TmgG_UFC-23">
          <mxGeometry relative="1" as="geometry" />
        </mxCell>
        <mxCell id="zNC3zreKvYr2TmgG_UFC-8" value="pistioin&lt;br&gt;192.168.126.2" style="rounded=0;whiteSpace=wrap;html=1;" vertex="1" parent="1">
          <mxGeometry x="880" y="170" width="90" height="30" as="geometry" />
        </mxCell>
        <mxCell id="zNC3zreKvYr2TmgG_UFC-12" value="eth0&lt;br&gt;10.101.2.5" style="rounded=0;whiteSpace=wrap;html=1;" vertex="1" parent="1">
          <mxGeometry x="60" y="210" width="90" height="30" as="geometry" />
        </mxCell>
        <mxCell id="zNC3zreKvYr2TmgG_UFC-13" value="vethXXX&lt;br&gt;10.101.2.1" style="rounded=0;whiteSpace=wrap;html=1;" vertex="1" parent="1">
          <mxGeometry x="60" y="250" width="90" height="30" as="geometry" />
        </mxCell>
        <mxCell id="zNC3zreKvYr2TmgG_UFC-14" value="vethXXX&lt;br&gt;10.101.2.1" style="rounded=0;whiteSpace=wrap;html=1;" vertex="1" parent="1">
          <mxGeometry x="300" y="250" width="90" height="30" as="geometry" />
        </mxCell>
        <mxCell id="zNC3zreKvYr2TmgG_UFC-15" value="&lt;span style=&quot;font-weight: normal;&quot;&gt;vethXXX&lt;br&gt;10.101.2.1&lt;/span&gt;" style="rounded=0;whiteSpace=wrap;html=1;fontStyle=1" vertex="1" parent="1">
          <mxGeometry x="880" y="250" width="90" height="30" as="geometry" />
        </mxCell>
        <mxCell id="zNC3zreKvYr2TmgG_UFC-16" value="istioout&lt;br&gt;192.168.127.1" style="rounded=0;whiteSpace=wrap;html=1;" vertex="1" parent="1">
          <mxGeometry x="300" y="290" width="90" height="30" as="geometry" />
        </mxCell>
        <mxCell id="zNC3zreKvYr2TmgG_UFC-17" value="istioin&lt;br&gt;192.168.126.1" style="rounded=0;whiteSpace=wrap;html=1;" vertex="1" parent="1">
          <mxGeometry x="880" y="290" width="90" height="30" as="geometry" />
        </mxCell>
        <mxCell id="zNC3zreKvYr2TmgG_UFC-18" value="eth0&lt;br&gt;10.101.3.2" style="rounded=0;whiteSpace=wrap;html=1;" vertex="1" parent="1">
          <mxGeometry x="1050" y="210" width="90" height="30" as="geometry" />
        </mxCell>
        <mxCell id="zNC3zreKvYr2TmgG_UFC-19" value="vethXXX&lt;br&gt;10.101.2.1" style="rounded=0;whiteSpace=wrap;html=1;" vertex="1" parent="1">
          <mxGeometry x="1050" y="250" width="90" height="30" as="geometry" />
        </mxCell>
        <mxCell id="zNC3zreKvYr2TmgG_UFC-20" value="waypoint" style="rounded=0;whiteSpace=wrap;html=1;align=left;verticalAlign=top;" vertex="1" parent="1">
          <mxGeometry x="500" y="170" width="190" height="70" as="geometry" />
        </mxCell>
        <mxCell id="zNC3zreKvYr2TmgG_UFC-21" value="eth0&lt;br&gt;10.101.2.7" style="rounded=0;whiteSpace=wrap;html=1;" vertex="1" parent="1">
          <mxGeometry x="560" y="210" width="90" height="30" as="geometry" />
        </mxCell>
        <mxCell id="zNC3zreKvYr2TmgG_UFC-22" value="vethXXX&lt;br&gt;10.101.2.1" style="rounded=0;whiteSpace=wrap;html=1;" vertex="1" parent="1">
          <mxGeometry x="560" y="250" width="90" height="30" as="geometry" />
        </mxCell>
        <mxCell id="zNC3zreKvYr2TmgG_UFC-23" value="10.101.2.7:50036 &amp;lt;-&amp;gt; 10.101.3.2:15008" style="text;html=1;strokeColor=none;fillColor=none;align=center;verticalAlign=middle;whiteSpace=wrap;rounded=0;" vertex="1" parent="1">
          <mxGeometry x="830" y="450" width="240" height="30" as="geometry" />
        </mxCell>
        <mxCell id="zNC3zreKvYr2TmgG_UFC-24" value="" style="curved=1;endArrow=classic;html=1;rounded=0;entryX=0.5;entryY=0;entryDx=0;entryDy=0;exitX=0.5;exitY=1;exitDx=0;exitDy=0;" edge="1" parent="1" source="zNC3zreKvYr2TmgG_UFC-17" target="zNC3zreKvYr2TmgG_UFC-23">
          <mxGeometry width="50" height="50" relative="1" as="geometry">
            <mxPoint x="400" y="210" as="sourcePoint" />
            <mxPoint x="450" y="160" as="targetPoint" />
            <Array as="points">
              <mxPoint x="980" y="300" />
            </Array>
          </mxGeometry>
        </mxCell>
      </root>
    </mxGraphModel>
  </diagram>
</mxfile>
